<?xml version="1.0" encoding="UTF-8" standalone="no"?>
<!DOCTYPE svg PUBLIC "-//W3C//DTD SVG 1.1//EN" "http://www.w3.org/Graphics/SVG/1.1/DTD/svg11.dtd">
<svg width="100%" height="100%" viewBox="0 0 1080 1080" version="1.1" xmlns="http://www.w3.org/2000/svg" xmlns:xlink="http://www.w3.org/1999/xlink" xml:space="preserve" xmlns:serif="http://www.serif.com/" style="fill-rule:evenodd;clip-rule:evenodd;stroke-linejoin:round;stroke-miterlimit:2;">
    <g transform="matrix(1.05469,0,0,1.05469,0,0)">
        <path d="M1024,170.334C1024,76.324 947.676,0 853.666,0L170.334,0C76.324,0 0,76.324 0,170.334L0,853.666C0,947.676 76.324,1024 170.334,1024L853.666,1024C947.676,1024 1024,947.676 1024,853.666L1024,170.334Z" style="fill:rgb(251,249,232);"/>
    </g>
    <g transform="matrix(0.949385,0,0,0.94864,27.3319,27.7341)">
        <g transform="matrix(1.409,0,0,1.409,-292.697,-258.369)">
            <path d="M887.849,214.244C899.328,214.244 907.64,216.322 912.786,220.478C917.932,224.634 920.504,231.264 920.504,240.368C920.504,242.347 920.109,246.503 919.317,252.836L875.381,503.39C873.006,516.452 865.881,525.952 854.007,531.889C842.132,537.826 824.914,540.795 802.352,540.795C782.957,540.795 769.302,538.717 761.385,534.561C753.469,530.405 749.511,523.379 749.511,513.483C749.511,511.504 749.906,508.14 750.698,503.39L779.197,341.896L671.732,341.896L591.579,797.286L725.761,797.286C736.053,797.286 743.573,799.364 748.323,803.52C753.073,807.676 755.448,815.493 755.448,826.972C755.448,834.888 754.26,845.378 751.885,858.44C749.115,875.064 745.75,887.73 741.792,896.438C737.834,905.146 732.985,911.084 727.246,914.25C721.506,917.417 713.887,919 704.387,919L299.464,919C288.777,919 281.059,916.823 276.309,912.469C271.559,908.115 269.184,900.199 269.184,888.72C269.184,878.824 270.174,868.731 272.153,858.44C276.507,834.295 282.246,818.066 289.371,809.754C296.496,801.442 306.985,797.286 320.838,797.286L443.147,797.286L523.3,341.896L415.835,341.896L387.336,503.39C384.961,516.452 377.836,525.952 365.962,531.889C354.087,537.826 336.869,540.795 314.307,540.795C294.912,540.795 281.257,538.717 273.34,534.561C265.424,530.405 261.466,523.379 261.466,513.483C261.466,511.504 261.861,508.14 262.653,503.39L306.589,252.836C308.964,239.379 313.714,229.582 320.838,223.447C327.963,217.312 338.452,214.244 352.306,214.244L887.849,214.244Z" style="fill:rgb(25,25,25);fill-rule:nonzero;"/>
        </g>
        <g transform="matrix(0.760118,0,0,0.760118,528.09,333.439)">
            <path d="M529.831,699.32C565.059,699.32 590.49,702.289 606.125,708.226C621.76,714.164 628.39,723.663 626.015,736.725L599.297,887.532C596.922,900.99 588.214,910.589 573.173,916.328C558.132,922.068 533.591,924.937 499.551,924.937C464.719,924.937 439.386,921.969 423.554,916.031C407.721,910.094 400.992,900.594 403.367,887.532L430.085,736.725C432.459,723.267 441.167,713.669 456.209,707.929C471.25,702.19 495.791,699.32 529.831,699.32Z" style="fill:rgb(25,25,25);fill-rule:nonzero;"/>
        </g>
    </g>
    <g transform="matrix(0.949385,0,0,0.94864,27.3319,26.4988)">
        <g transform="matrix(0.0657058,0,0,0.0657058,464.186,956.819)">
            <path d="M283.541,34.669L283.541,919L394.083,919L394.083,366.293L504.624,366.293L504.624,255.752L394.083,255.752L394.083,34.669L283.541,34.669ZM725.707,587.376L725.707,919L836.248,919L836.248,34.669L725.707,34.669L725.707,476.834L615.166,476.834L615.166,587.376L725.707,587.376ZM615.166,476.834L615.166,366.293L504.624,366.293L504.624,476.834L615.166,476.834Z" style="fill:rgb(251,249,232);fill-rule:nonzero;"/>
            <path d="M1167.87,255.752L1167.87,366.293L1499.5,366.293L1499.5,255.752L1167.87,255.752ZM1499.5,366.293L1499.5,808.459L1610.04,808.459L1610.04,366.293L1499.5,366.293ZM1057.33,366.293L1057.33,808.459L1167.87,808.459L1167.87,366.293L1057.33,366.293ZM1167.87,808.459L1167.87,919L1499.5,919L1499.5,808.459L1167.87,808.459Z" style="fill:rgb(251,249,232);fill-rule:nonzero;"/>
            <path d="M1941.66,34.669L1941.66,255.752L1831.12,255.752L1831.12,366.293L1941.66,366.293L1941.66,808.459L2052.2,808.459L2052.2,366.293L2383.83,366.293L2383.83,255.752L2052.2,255.752L2052.2,34.669L1941.66,34.669ZM2052.2,808.459L2052.2,919L2273.29,919L2273.29,808.459L2052.2,808.459ZM2273.29,697.917L2273.29,808.459L2383.83,808.459L2383.83,697.917L2273.29,697.917Z" style="fill:rgb(251,249,232);fill-rule:nonzero;"/>
            <path d="M2715.45,255.752L2715.45,366.293L3047.08,366.293L3047.08,255.752L2715.45,255.752ZM2604.91,366.293L2604.91,808.459L2715.45,808.459L2715.45,587.376L3157.62,587.376L3157.62,366.293L3047.08,366.293L3047.08,476.834L2715.45,476.834L2715.45,366.293L2604.91,366.293ZM2715.45,808.459L2715.45,919L3047.08,919L3047.08,808.459L2715.45,808.459ZM3047.08,697.917L3047.08,808.459L3157.62,808.459L3157.62,697.917L3047.08,697.917Z" style="fill:rgb(251,249,232);fill-rule:nonzero;"/>
            <path d="M3820.87,808.459L3489.24,808.459L3489.24,919L3820.87,919L3820.87,808.459ZM3489.24,808.459L3489.24,697.917L3378.7,697.917L3378.7,808.459L3489.24,808.459ZM3820.87,255.752L3489.24,255.752L3489.24,366.293L3820.87,366.293L3820.87,255.752ZM3378.7,366.293L3378.7,476.834L3489.24,476.834L3489.24,366.293L3378.7,366.293ZM3489.24,476.834L3489.24,587.376L3820.87,587.376L3820.87,476.834L3489.24,476.834ZM3820.87,587.376L3820.87,808.459L3931.41,808.459L3931.41,587.376L3820.87,587.376ZM3820.87,366.293L3820.87,476.834L3931.41,476.834L3931.41,366.293L3820.87,366.293Z" style="fill:rgb(251,249,232);fill-rule:nonzero;"/>
        </g>
        <g transform="matrix(0.0657058,0,0,0.0657058,387.683,882.024)">
            <path d="M283.541,34.669L283.541,145.21L504.624,145.21L504.624,919L615.166,919L615.166,145.21L836.248,145.21L836.248,34.669L283.541,34.669Z" style="fill:rgb(251,249,232);fill-rule:nonzero;"/>
            <path d="M1278.41,366.293L1278.41,808.459L1057.33,808.459L1057.33,919L1610.04,919L1610.04,808.459L1388.96,808.459L1388.96,255.752L1057.33,255.752L1057.33,366.293L1278.41,366.293ZM1278.41,34.669L1278.41,145.21L1388.96,145.21L1388.96,34.669L1278.41,34.669Z" style="fill:rgb(251,249,232);fill-rule:nonzero;"/>
            <path d="M1831.12,255.752L1831.12,919L1941.66,919L1941.66,476.834L2052.2,476.834L2052.2,366.293L1941.66,366.293L1941.66,255.752L1831.12,255.752ZM2052.2,255.752L2052.2,366.293L2273.29,366.293L2273.29,255.752L2052.2,255.752ZM2273.29,366.293L2273.29,919L2383.83,919L2383.83,366.293L2273.29,366.293Z" style="fill:rgb(251,249,232);fill-rule:nonzero;"/>
            <path d="M2604.91,34.669L2604.91,919L2715.45,919L2715.45,697.917L2936.54,697.917L2936.54,476.834L2825.99,476.834L2825.99,587.376L2715.45,587.376L2715.45,34.669L2604.91,34.669ZM3047.08,255.752L3047.08,366.293L3157.62,366.293L3157.62,255.752L3047.08,255.752ZM2936.54,366.293L2936.54,476.834L3047.08,476.834L3047.08,366.293L2936.54,366.293ZM2936.54,697.917L2936.54,808.459L3047.08,808.459L3047.08,697.917L2936.54,697.917ZM3047.08,808.459L3047.08,919L3157.62,919L3157.62,808.459L3047.08,808.459Z" style="fill:rgb(251,249,232);fill-rule:nonzero;"/>
            <path d="M3489.24,255.752L3489.24,366.293L3820.87,366.293L3820.87,255.752L3489.24,255.752ZM3820.87,366.293L3820.87,808.459L3931.41,808.459L3931.41,366.293L3820.87,366.293ZM3378.7,366.293L3378.7,808.459L3489.24,808.459L3489.24,366.293L3378.7,366.293ZM3489.24,808.459L3489.24,919L3820.87,919L3820.87,808.459L3489.24,808.459Z" style="fill:rgb(251,249,232);fill-rule:nonzero;"/>
            <rect x="4373.58" y="34.669" width="110.541" height="331.624" style="fill:rgb(251,249,232);fill-rule:nonzero;"/>
            <path d="M5368.45,808.459L5036.82,808.459L5036.82,919L5368.45,919L5368.45,808.459ZM5036.82,808.459L5036.82,697.917L4926.28,697.917L4926.28,808.459L5036.82,808.459ZM5368.45,255.752L5036.82,255.752L5036.82,366.293L5368.45,366.293L5368.45,255.752ZM4926.28,366.293L4926.28,476.834L5036.82,476.834L5036.82,366.293L4926.28,366.293ZM5036.82,476.834L5036.82,587.376L5368.45,587.376L5368.45,476.834L5036.82,476.834ZM5368.45,587.376L5368.45,808.459L5478.99,808.459L5478.99,587.376L5368.45,587.376ZM5368.45,366.293L5368.45,476.834L5478.99,476.834L5478.99,366.293L5368.45,366.293Z" style="fill:rgb(251,249,232);fill-rule:nonzero;"/>
        </g>
    </g>
</svg>
