<?xml version="1.0" encoding="UTF-8" standalone="no"?>
<!DOCTYPE svg PUBLIC "-//W3C//DTD SVG 1.1//EN" "http://www.w3.org/Graphics/SVG/1.1/DTD/svg11.dtd">
<svg width="100%" height="100%" viewBox="0 0 1080 1080" version="1.1" xmlns="http://www.w3.org/2000/svg" xmlns:xlink="http://www.w3.org/1999/xlink" xml:space="preserve" xmlns:serif="http://www.serif.com/" style="fill-rule:evenodd;clip-rule:evenodd;stroke-linejoin:round;stroke-miterlimit:2;">
    <g transform="matrix(1.05469,0,0,1.05469,0,0)">
        <path d="M1024,170.334C1024,76.324 947.676,0 853.666,0L170.334,0C76.324,0 0,76.324 0,170.334L0,853.666C0,947.676 76.324,1024 170.334,1024L853.666,1024C947.676,1024 1024,947.676 1024,853.666L1024,170.334Z" style="fill:rgb(251,249,232);"/>
    </g>
    <g transform="matrix(0.948849,0,0,0.94864,9.98141,27.7341)">
        <g transform="matrix(1.409,0,0,1.409,-278.803,-258.369)">
            <path d="M887.849,214.244C899.328,214.244 907.64,216.322 912.786,220.478C917.932,224.634 920.504,231.264 920.504,240.368C920.504,242.347 920.109,246.503 919.317,252.836L875.381,503.39C873.006,516.452 865.881,525.952 854.007,531.889C842.132,537.826 824.914,540.795 802.352,540.795C782.957,540.795 769.302,538.717 761.385,534.561C753.469,530.405 749.511,523.379 749.511,513.483C749.511,511.504 749.906,508.14 750.698,503.39L779.197,341.896L671.732,341.896L591.579,797.286L725.761,797.286C736.053,797.286 743.573,799.364 748.323,803.52C753.073,807.676 755.448,815.493 755.448,826.972C755.448,834.888 754.26,845.378 751.885,858.44C749.115,875.064 745.75,887.73 741.792,896.438C737.834,905.146 732.985,911.084 727.246,914.25C721.506,917.417 713.887,919 704.387,919L299.464,919C288.777,919 281.059,916.823 276.309,912.469C271.559,908.115 269.184,900.199 269.184,888.72C269.184,878.824 270.174,868.731 272.153,858.44C276.507,834.295 282.246,818.066 289.371,809.754C296.496,801.442 306.985,797.286 320.838,797.286L443.147,797.286L523.3,341.896L415.835,341.896L387.336,503.39C384.961,516.452 377.836,525.952 365.962,531.889C354.087,537.826 336.869,540.795 314.307,540.795C294.912,540.795 281.257,538.717 273.34,534.561C265.424,530.405 261.466,523.379 261.466,513.483C261.466,511.504 261.861,508.14 262.653,503.39L306.589,252.836C308.964,239.379 313.714,229.582 320.838,223.447C327.963,217.312 338.452,214.244 352.306,214.244L887.849,214.244Z" style="fill:rgb(25,25,25);fill-rule:nonzero;"/>
        </g>
        <g transform="matrix(0.760118,0,0,0.760118,551.378,333.439)">
            <path d="M529.831,699.32C565.059,699.32 590.49,702.289 606.125,708.226C621.76,714.164 628.39,723.663 626.015,736.725L599.297,887.532C596.922,900.99 588.214,910.589 573.173,916.328C558.132,922.068 533.591,924.937 499.551,924.937C464.719,924.937 439.386,921.969 423.554,916.031C407.721,910.094 400.992,900.594 403.367,887.532L430.085,736.725C432.459,723.267 441.167,713.669 456.209,707.929C471.25,702.19 495.791,699.32 529.831,699.32Z" style="fill:rgb(25,25,25);fill-rule:nonzero;"/>
        </g>
    </g>
</svg>
